<mxfile host="app.diagrams.net" agent="Mozilla/5.0 (X11; Linux x86_64) AppleWebKit/537.36 (KHTML, like Gecko) Chrome/133.0.0.0 Safari/537.36" version="26.0.4">
  <diagram name="Page-1" id="M-5VyhY0LiYvmEfhRqWs">
    <mxGraphModel dx="2087" dy="1321" grid="0" gridSize="10" guides="1" tooltips="1" connect="1" arrows="1" fold="1" page="0" pageScale="1" pageWidth="850" pageHeight="1100" math="0" shadow="0">
      <root>
        <mxCell id="0" />
        <mxCell id="1" parent="0" />
        <mxCell id="4QQr_KaxBXI5XRUfYEeq-5" value="datamart.campaign_vouchers" style="shape=table;startSize=30;container=1;collapsible=0;childLayout=tableLayout;fixedRows=1;rowLines=0;fontStyle=1;strokeColor=default;fontSize=16;" vertex="1" parent="1">
          <mxGeometry x="270" y="193" width="250" height="120" as="geometry" />
        </mxCell>
        <mxCell id="4QQr_KaxBXI5XRUfYEeq-6" value="" style="shape=tableRow;horizontal=0;startSize=0;swimlaneHead=0;swimlaneBody=0;top=0;left=0;bottom=0;right=0;collapsible=0;dropTarget=0;fillColor=none;points=[[0,0.5],[1,0.5]];portConstraint=eastwest;strokeColor=inherit;fontSize=16;" vertex="1" parent="4QQr_KaxBXI5XRUfYEeq-5">
          <mxGeometry y="30" width="250" height="30" as="geometry" />
        </mxCell>
        <mxCell id="4QQr_KaxBXI5XRUfYEeq-7" value="1" style="shape=partialRectangle;html=1;whiteSpace=wrap;connectable=0;fillColor=none;top=0;left=0;bottom=0;right=0;overflow=hidden;pointerEvents=1;strokeColor=inherit;fontSize=16;" vertex="1" parent="4QQr_KaxBXI5XRUfYEeq-6">
          <mxGeometry width="56" height="30" as="geometry">
            <mxRectangle width="56" height="30" as="alternateBounds" />
          </mxGeometry>
        </mxCell>
        <mxCell id="4QQr_KaxBXI5XRUfYEeq-8" value="&lt;font style=&quot;color: rgb(51, 51, 255);&quot;&gt;id as voucher_id&lt;/font&gt;" style="shape=partialRectangle;html=1;whiteSpace=wrap;connectable=0;fillColor=none;top=0;left=0;bottom=0;right=0;align=left;spacingLeft=6;overflow=hidden;strokeColor=inherit;fontSize=16;" vertex="1" parent="4QQr_KaxBXI5XRUfYEeq-6">
          <mxGeometry x="56" width="194" height="30" as="geometry">
            <mxRectangle width="194" height="30" as="alternateBounds" />
          </mxGeometry>
        </mxCell>
        <mxCell id="4QQr_KaxBXI5XRUfYEeq-9" value="" style="shape=tableRow;horizontal=0;startSize=0;swimlaneHead=0;swimlaneBody=0;top=0;left=0;bottom=0;right=0;collapsible=0;dropTarget=0;fillColor=none;points=[[0,0.5],[1,0.5]];portConstraint=eastwest;strokeColor=inherit;fontSize=16;" vertex="1" parent="4QQr_KaxBXI5XRUfYEeq-5">
          <mxGeometry y="60" width="250" height="30" as="geometry" />
        </mxCell>
        <mxCell id="4QQr_KaxBXI5XRUfYEeq-10" value="2" style="shape=partialRectangle;html=1;whiteSpace=wrap;connectable=0;fillColor=none;top=0;left=0;bottom=0;right=0;overflow=hidden;strokeColor=inherit;fontSize=16;" vertex="1" parent="4QQr_KaxBXI5XRUfYEeq-9">
          <mxGeometry width="56" height="30" as="geometry">
            <mxRectangle width="56" height="30" as="alternateBounds" />
          </mxGeometry>
        </mxCell>
        <mxCell id="4QQr_KaxBXI5XRUfYEeq-11" value="&lt;span style=&quot;background-color: rgb(255, 255, 255); padding: 0px 0px 0px 2px;&quot;&gt;&lt;span style=&quot;font-family: Monospace; font-size: 10pt; white-space: pre;&quot;&gt;&lt;span&gt;&lt;font style=&quot;color: rgb(255, 102, 179);&quot;&gt;campaign_id&lt;/font&gt;&lt;/span&gt;&lt;/span&gt;&lt;/span&gt;" style="shape=partialRectangle;html=1;whiteSpace=wrap;connectable=0;fillColor=none;top=0;left=0;bottom=0;right=0;align=left;spacingLeft=6;overflow=hidden;strokeColor=inherit;fontSize=16;" vertex="1" parent="4QQr_KaxBXI5XRUfYEeq-9">
          <mxGeometry x="56" width="194" height="30" as="geometry">
            <mxRectangle width="194" height="30" as="alternateBounds" />
          </mxGeometry>
        </mxCell>
        <mxCell id="4QQr_KaxBXI5XRUfYEeq-12" value="" style="shape=tableRow;horizontal=0;startSize=0;swimlaneHead=0;swimlaneBody=0;top=0;left=0;bottom=0;right=0;collapsible=0;dropTarget=0;fillColor=none;points=[[0,0.5],[1,0.5]];portConstraint=eastwest;strokeColor=inherit;fontSize=16;" vertex="1" parent="4QQr_KaxBXI5XRUfYEeq-5">
          <mxGeometry y="90" width="250" height="30" as="geometry" />
        </mxCell>
        <mxCell id="4QQr_KaxBXI5XRUfYEeq-13" value="3" style="shape=partialRectangle;html=1;whiteSpace=wrap;connectable=0;fillColor=none;top=0;left=0;bottom=0;right=0;overflow=hidden;strokeColor=inherit;fontSize=16;" vertex="1" parent="4QQr_KaxBXI5XRUfYEeq-12">
          <mxGeometry width="56" height="30" as="geometry">
            <mxRectangle width="56" height="30" as="alternateBounds" />
          </mxGeometry>
        </mxCell>
        <mxCell id="4QQr_KaxBXI5XRUfYEeq-14" value="..." style="shape=partialRectangle;html=1;whiteSpace=wrap;connectable=0;fillColor=none;top=0;left=0;bottom=0;right=0;align=left;spacingLeft=6;overflow=hidden;strokeColor=inherit;fontSize=16;" vertex="1" parent="4QQr_KaxBXI5XRUfYEeq-12">
          <mxGeometry x="56" width="194" height="30" as="geometry">
            <mxRectangle width="194" height="30" as="alternateBounds" />
          </mxGeometry>
        </mxCell>
        <mxCell id="4QQr_KaxBXI5XRUfYEeq-15" value="datamart.campaigns" style="shape=table;startSize=30;container=1;collapsible=0;childLayout=tableLayout;fixedRows=1;rowLines=0;fontStyle=1;strokeColor=default;fontSize=16;" vertex="1" parent="1">
          <mxGeometry x="681" y="305" width="250" height="120" as="geometry" />
        </mxCell>
        <mxCell id="4QQr_KaxBXI5XRUfYEeq-16" value="" style="shape=tableRow;horizontal=0;startSize=0;swimlaneHead=0;swimlaneBody=0;top=0;left=0;bottom=0;right=0;collapsible=0;dropTarget=0;fillColor=none;points=[[0,0.5],[1,0.5]];portConstraint=eastwest;strokeColor=inherit;fontSize=16;" vertex="1" parent="4QQr_KaxBXI5XRUfYEeq-15">
          <mxGeometry y="30" width="250" height="30" as="geometry" />
        </mxCell>
        <mxCell id="4QQr_KaxBXI5XRUfYEeq-17" value="1" style="shape=partialRectangle;html=1;whiteSpace=wrap;connectable=0;fillColor=none;top=0;left=0;bottom=0;right=0;overflow=hidden;pointerEvents=1;strokeColor=inherit;fontSize=16;" vertex="1" parent="4QQr_KaxBXI5XRUfYEeq-16">
          <mxGeometry width="56" height="30" as="geometry">
            <mxRectangle width="56" height="30" as="alternateBounds" />
          </mxGeometry>
        </mxCell>
        <mxCell id="4QQr_KaxBXI5XRUfYEeq-18" value="&lt;font style=&quot;color: rgb(255, 102, 179);&quot;&gt;id&lt;/font&gt;" style="shape=partialRectangle;html=1;whiteSpace=wrap;connectable=0;fillColor=none;top=0;left=0;bottom=0;right=0;align=left;spacingLeft=6;overflow=hidden;strokeColor=inherit;fontSize=16;" vertex="1" parent="4QQr_KaxBXI5XRUfYEeq-16">
          <mxGeometry x="56" width="194" height="30" as="geometry">
            <mxRectangle width="194" height="30" as="alternateBounds" />
          </mxGeometry>
        </mxCell>
        <mxCell id="4QQr_KaxBXI5XRUfYEeq-19" value="" style="shape=tableRow;horizontal=0;startSize=0;swimlaneHead=0;swimlaneBody=0;top=0;left=0;bottom=0;right=0;collapsible=0;dropTarget=0;fillColor=none;points=[[0,0.5],[1,0.5]];portConstraint=eastwest;strokeColor=inherit;fontSize=16;" vertex="1" parent="4QQr_KaxBXI5XRUfYEeq-15">
          <mxGeometry y="60" width="250" height="30" as="geometry" />
        </mxCell>
        <mxCell id="4QQr_KaxBXI5XRUfYEeq-20" value="2" style="shape=partialRectangle;html=1;whiteSpace=wrap;connectable=0;fillColor=none;top=0;left=0;bottom=0;right=0;overflow=hidden;strokeColor=inherit;fontSize=16;" vertex="1" parent="4QQr_KaxBXI5XRUfYEeq-19">
          <mxGeometry width="56" height="30" as="geometry">
            <mxRectangle width="56" height="30" as="alternateBounds" />
          </mxGeometry>
        </mxCell>
        <mxCell id="4QQr_KaxBXI5XRUfYEeq-21" value="type" style="shape=partialRectangle;html=1;whiteSpace=wrap;connectable=0;fillColor=none;top=0;left=0;bottom=0;right=0;align=left;spacingLeft=6;overflow=hidden;strokeColor=inherit;fontSize=16;" vertex="1" parent="4QQr_KaxBXI5XRUfYEeq-19">
          <mxGeometry x="56" width="194" height="30" as="geometry">
            <mxRectangle width="194" height="30" as="alternateBounds" />
          </mxGeometry>
        </mxCell>
        <mxCell id="4QQr_KaxBXI5XRUfYEeq-22" value="" style="shape=tableRow;horizontal=0;startSize=0;swimlaneHead=0;swimlaneBody=0;top=0;left=0;bottom=0;right=0;collapsible=0;dropTarget=0;fillColor=none;points=[[0,0.5],[1,0.5]];portConstraint=eastwest;strokeColor=inherit;fontSize=16;" vertex="1" parent="4QQr_KaxBXI5XRUfYEeq-15">
          <mxGeometry y="90" width="250" height="30" as="geometry" />
        </mxCell>
        <mxCell id="4QQr_KaxBXI5XRUfYEeq-23" value="3" style="shape=partialRectangle;html=1;whiteSpace=wrap;connectable=0;fillColor=none;top=0;left=0;bottom=0;right=0;overflow=hidden;strokeColor=inherit;fontSize=16;" vertex="1" parent="4QQr_KaxBXI5XRUfYEeq-22">
          <mxGeometry width="56" height="30" as="geometry">
            <mxRectangle width="56" height="30" as="alternateBounds" />
          </mxGeometry>
        </mxCell>
        <mxCell id="4QQr_KaxBXI5XRUfYEeq-24" value="..." style="shape=partialRectangle;html=1;whiteSpace=wrap;connectable=0;fillColor=none;top=0;left=0;bottom=0;right=0;align=left;spacingLeft=6;overflow=hidden;strokeColor=inherit;fontSize=16;" vertex="1" parent="4QQr_KaxBXI5XRUfYEeq-22">
          <mxGeometry x="56" width="194" height="30" as="geometry">
            <mxRectangle width="194" height="30" as="alternateBounds" />
          </mxGeometry>
        </mxCell>
        <mxCell id="4QQr_KaxBXI5XRUfYEeq-26" value="historical.campaign_usage_history" style="shape=table;startSize=30;container=1;collapsible=0;childLayout=tableLayout;fixedRows=1;rowLines=0;fontStyle=1;strokeColor=default;fontSize=16;" vertex="1" parent="1">
          <mxGeometry x="-380" y="164" width="548" height="120" as="geometry" />
        </mxCell>
        <mxCell id="4QQr_KaxBXI5XRUfYEeq-27" value="" style="shape=tableRow;horizontal=0;startSize=0;swimlaneHead=0;swimlaneBody=0;top=0;left=0;bottom=0;right=0;collapsible=0;dropTarget=0;fillColor=none;points=[[0,0.5],[1,0.5]];portConstraint=eastwest;strokeColor=inherit;fontSize=16;" vertex="1" parent="4QQr_KaxBXI5XRUfYEeq-26">
          <mxGeometry y="30" width="548" height="30" as="geometry" />
        </mxCell>
        <mxCell id="4QQr_KaxBXI5XRUfYEeq-28" value="1" style="shape=partialRectangle;html=1;whiteSpace=wrap;connectable=0;fillColor=none;top=0;left=0;bottom=0;right=0;overflow=hidden;pointerEvents=1;strokeColor=inherit;fontSize=16;" vertex="1" parent="4QQr_KaxBXI5XRUfYEeq-27">
          <mxGeometry width="123" height="30" as="geometry">
            <mxRectangle width="123" height="30" as="alternateBounds" />
          </mxGeometry>
        </mxCell>
        <mxCell id="4QQr_KaxBXI5XRUfYEeq-29" value="id" style="shape=partialRectangle;html=1;whiteSpace=wrap;connectable=0;fillColor=none;top=0;left=0;bottom=0;right=0;align=left;spacingLeft=6;overflow=hidden;strokeColor=inherit;fontSize=16;" vertex="1" parent="4QQr_KaxBXI5XRUfYEeq-27">
          <mxGeometry x="123" width="425" height="30" as="geometry">
            <mxRectangle width="425" height="30" as="alternateBounds" />
          </mxGeometry>
        </mxCell>
        <mxCell id="4QQr_KaxBXI5XRUfYEeq-30" value="" style="shape=tableRow;horizontal=0;startSize=0;swimlaneHead=0;swimlaneBody=0;top=0;left=0;bottom=0;right=0;collapsible=0;dropTarget=0;fillColor=none;points=[[0,0.5],[1,0.5]];portConstraint=eastwest;strokeColor=inherit;fontSize=16;" vertex="1" parent="4QQr_KaxBXI5XRUfYEeq-26">
          <mxGeometry y="60" width="548" height="30" as="geometry" />
        </mxCell>
        <mxCell id="4QQr_KaxBXI5XRUfYEeq-31" value="2" style="shape=partialRectangle;html=1;whiteSpace=wrap;connectable=0;fillColor=none;top=0;left=0;bottom=0;right=0;overflow=hidden;strokeColor=inherit;fontSize=16;" vertex="1" parent="4QQr_KaxBXI5XRUfYEeq-30">
          <mxGeometry width="123" height="30" as="geometry">
            <mxRectangle width="123" height="30" as="alternateBounds" />
          </mxGeometry>
        </mxCell>
        <mxCell id="4QQr_KaxBXI5XRUfYEeq-32" value="&lt;span style=&quot;background-color: rgb(255, 255, 255); padding: 0px 0px 0px 2px;&quot;&gt;&lt;span style=&quot;font-family: Monospace; font-size: 10pt; white-space: pre;&quot;&gt;&lt;font style=&quot;color: rgb(51, 51, 255);&quot;&gt;JSONExtractInt(&lt;span&gt;data_changed&lt;/span&gt;, &lt;span&gt;&#39;id&#39;&lt;/span&gt;) &lt;span style=&quot;font-weight: bold;&quot;&gt;as&lt;/span&gt; &lt;span style=&quot;font-style: italic;&quot;&gt;voucher_id&lt;/span&gt;&lt;/font&gt;&lt;/span&gt;&lt;/span&gt;" style="shape=partialRectangle;html=1;whiteSpace=wrap;connectable=0;fillColor=none;top=0;left=0;bottom=0;right=0;align=left;spacingLeft=6;overflow=hidden;strokeColor=inherit;fontSize=16;" vertex="1" parent="4QQr_KaxBXI5XRUfYEeq-30">
          <mxGeometry x="123" width="425" height="30" as="geometry">
            <mxRectangle width="425" height="30" as="alternateBounds" />
          </mxGeometry>
        </mxCell>
        <mxCell id="4QQr_KaxBXI5XRUfYEeq-33" value="" style="shape=tableRow;horizontal=0;startSize=0;swimlaneHead=0;swimlaneBody=0;top=0;left=0;bottom=0;right=0;collapsible=0;dropTarget=0;fillColor=none;points=[[0,0.5],[1,0.5]];portConstraint=eastwest;strokeColor=inherit;fontSize=16;" vertex="1" parent="4QQr_KaxBXI5XRUfYEeq-26">
          <mxGeometry y="90" width="548" height="30" as="geometry" />
        </mxCell>
        <mxCell id="4QQr_KaxBXI5XRUfYEeq-34" value="3" style="shape=partialRectangle;html=1;whiteSpace=wrap;connectable=0;fillColor=none;top=0;left=0;bottom=0;right=0;overflow=hidden;strokeColor=inherit;fontSize=16;" vertex="1" parent="4QQr_KaxBXI5XRUfYEeq-33">
          <mxGeometry width="123" height="30" as="geometry">
            <mxRectangle width="123" height="30" as="alternateBounds" />
          </mxGeometry>
        </mxCell>
        <mxCell id="4QQr_KaxBXI5XRUfYEeq-35" value="..." style="shape=partialRectangle;html=1;whiteSpace=wrap;connectable=0;fillColor=none;top=0;left=0;bottom=0;right=0;align=left;spacingLeft=6;overflow=hidden;strokeColor=inherit;fontSize=16;" vertex="1" parent="4QQr_KaxBXI5XRUfYEeq-33">
          <mxGeometry x="123" width="425" height="30" as="geometry">
            <mxRectangle width="425" height="30" as="alternateBounds" />
          </mxGeometry>
        </mxCell>
        <mxCell id="4QQr_KaxBXI5XRUfYEeq-37" value="datamart.balance_histories" style="shape=table;startSize=30;container=1;collapsible=0;childLayout=tableLayout;fixedRows=1;rowLines=0;fontStyle=1;strokeColor=default;fontSize=16;" vertex="1" parent="1">
          <mxGeometry x="670" y="-30" width="359" height="120" as="geometry" />
        </mxCell>
        <mxCell id="4QQr_KaxBXI5XRUfYEeq-38" value="" style="shape=tableRow;horizontal=0;startSize=0;swimlaneHead=0;swimlaneBody=0;top=0;left=0;bottom=0;right=0;collapsible=0;dropTarget=0;fillColor=none;points=[[0,0.5],[1,0.5]];portConstraint=eastwest;strokeColor=inherit;fontSize=16;" vertex="1" parent="4QQr_KaxBXI5XRUfYEeq-37">
          <mxGeometry y="30" width="359" height="30" as="geometry" />
        </mxCell>
        <mxCell id="4QQr_KaxBXI5XRUfYEeq-39" value="1" style="shape=partialRectangle;html=1;whiteSpace=wrap;connectable=0;fillColor=none;top=0;left=0;bottom=0;right=0;overflow=hidden;pointerEvents=1;strokeColor=inherit;fontSize=16;" vertex="1" parent="4QQr_KaxBXI5XRUfYEeq-38">
          <mxGeometry width="81" height="30" as="geometry">
            <mxRectangle width="81" height="30" as="alternateBounds" />
          </mxGeometry>
        </mxCell>
        <mxCell id="4QQr_KaxBXI5XRUfYEeq-40" value="id" style="shape=partialRectangle;html=1;whiteSpace=wrap;connectable=0;fillColor=none;top=0;left=0;bottom=0;right=0;align=left;spacingLeft=6;overflow=hidden;strokeColor=inherit;fontSize=16;" vertex="1" parent="4QQr_KaxBXI5XRUfYEeq-38">
          <mxGeometry x="81" width="278" height="30" as="geometry">
            <mxRectangle width="278" height="30" as="alternateBounds" />
          </mxGeometry>
        </mxCell>
        <mxCell id="4QQr_KaxBXI5XRUfYEeq-41" value="" style="shape=tableRow;horizontal=0;startSize=0;swimlaneHead=0;swimlaneBody=0;top=0;left=0;bottom=0;right=0;collapsible=0;dropTarget=0;fillColor=none;points=[[0,0.5],[1,0.5]];portConstraint=eastwest;strokeColor=inherit;fontSize=16;" vertex="1" parent="4QQr_KaxBXI5XRUfYEeq-37">
          <mxGeometry y="60" width="359" height="30" as="geometry" />
        </mxCell>
        <mxCell id="4QQr_KaxBXI5XRUfYEeq-42" value="2" style="shape=partialRectangle;html=1;whiteSpace=wrap;connectable=0;fillColor=none;top=0;left=0;bottom=0;right=0;overflow=hidden;strokeColor=inherit;fontSize=16;" vertex="1" parent="4QQr_KaxBXI5XRUfYEeq-41">
          <mxGeometry width="81" height="30" as="geometry">
            <mxRectangle width="81" height="30" as="alternateBounds" />
          </mxGeometry>
        </mxCell>
        <mxCell id="4QQr_KaxBXI5XRUfYEeq-43" value="&lt;font style=&quot;color: rgb(51, 51, 255);&quot;&gt;voucher_ids[1] as voucher_id,&lt;/font&gt;" style="shape=partialRectangle;html=1;whiteSpace=wrap;connectable=0;fillColor=none;top=0;left=0;bottom=0;right=0;align=left;spacingLeft=6;overflow=hidden;strokeColor=inherit;fontSize=16;" vertex="1" parent="4QQr_KaxBXI5XRUfYEeq-41">
          <mxGeometry x="81" width="278" height="30" as="geometry">
            <mxRectangle width="278" height="30" as="alternateBounds" />
          </mxGeometry>
        </mxCell>
        <mxCell id="4QQr_KaxBXI5XRUfYEeq-44" value="" style="shape=tableRow;horizontal=0;startSize=0;swimlaneHead=0;swimlaneBody=0;top=0;left=0;bottom=0;right=0;collapsible=0;dropTarget=0;fillColor=none;points=[[0,0.5],[1,0.5]];portConstraint=eastwest;strokeColor=inherit;fontSize=16;" vertex="1" parent="4QQr_KaxBXI5XRUfYEeq-37">
          <mxGeometry y="90" width="359" height="30" as="geometry" />
        </mxCell>
        <mxCell id="4QQr_KaxBXI5XRUfYEeq-45" value="3" style="shape=partialRectangle;html=1;whiteSpace=wrap;connectable=0;fillColor=none;top=0;left=0;bottom=0;right=0;overflow=hidden;strokeColor=inherit;fontSize=16;" vertex="1" parent="4QQr_KaxBXI5XRUfYEeq-44">
          <mxGeometry width="81" height="30" as="geometry">
            <mxRectangle width="81" height="30" as="alternateBounds" />
          </mxGeometry>
        </mxCell>
        <mxCell id="4QQr_KaxBXI5XRUfYEeq-46" value=".." style="shape=partialRectangle;html=1;whiteSpace=wrap;connectable=0;fillColor=none;top=0;left=0;bottom=0;right=0;align=left;spacingLeft=6;overflow=hidden;strokeColor=inherit;fontSize=16;" vertex="1" parent="4QQr_KaxBXI5XRUfYEeq-44">
          <mxGeometry x="81" width="278" height="30" as="geometry">
            <mxRectangle width="278" height="30" as="alternateBounds" />
          </mxGeometry>
        </mxCell>
        <mxCell id="4QQr_KaxBXI5XRUfYEeq-48" style="edgeStyle=orthogonalEdgeStyle;rounded=0;orthogonalLoop=1;jettySize=auto;html=1;" edge="1" parent="1" source="4QQr_KaxBXI5XRUfYEeq-6" target="4QQr_KaxBXI5XRUfYEeq-41">
          <mxGeometry relative="1" as="geometry" />
        </mxCell>
        <mxCell id="4QQr_KaxBXI5XRUfYEeq-49" style="edgeStyle=orthogonalEdgeStyle;rounded=0;orthogonalLoop=1;jettySize=auto;html=1;" edge="1" parent="1" source="4QQr_KaxBXI5XRUfYEeq-9" target="4QQr_KaxBXI5XRUfYEeq-16">
          <mxGeometry relative="1" as="geometry" />
        </mxCell>
        <mxCell id="4QQr_KaxBXI5XRUfYEeq-50" style="edgeStyle=orthogonalEdgeStyle;rounded=0;orthogonalLoop=1;jettySize=auto;html=1;" edge="1" parent="1" source="4QQr_KaxBXI5XRUfYEeq-6" target="4QQr_KaxBXI5XRUfYEeq-30">
          <mxGeometry relative="1" as="geometry" />
        </mxCell>
        <mxCell id="4QQr_KaxBXI5XRUfYEeq-51" value="if(isNotNull(H.usage_dt), H.usage_dt, NULL) as voucher_usage_dt," style="text;whiteSpace=wrap;" vertex="1" parent="1">
          <mxGeometry x="669.9976470588234" y="-69.99764705882342" width="386" height="36" as="geometry" />
        </mxCell>
        <mxCell id="4QQr_KaxBXI5XRUfYEeq-52" value="if(B.point_amount == 0 OR B.point == 0, &#39;Y&#39;, &#39;N&#39;) as is_0d_voucher,&#xa;  B.point as voucher_price_point,&#xa;  B.point_amount as voucher_price_amount,&#xa;  B.transaction_dt as voucher_buy_dt," style="text;whiteSpace=wrap;" vertex="1" parent="1">
          <mxGeometry x="-304" y="291" width="463" height="172" as="geometry" />
        </mxCell>
        <mxCell id="4QQr_KaxBXI5XRUfYEeq-53" value="C.pnl as pnl,&#xa;    C.code as campaign_code,&#xa;    C.name as campaign_name,&#xa;    C.type as campaign_type,&#xa;    C.campaign_status_name as campaign_status_name, &#xa;    C.expiry_dt as campaign_expiry_dt," style="text;whiteSpace=wrap;align=left;" vertex="1" parent="1">
          <mxGeometry x="687.9970588235293" y="433.9970588235293" width="334" height="108" as="geometry" />
        </mxCell>
      </root>
    </mxGraphModel>
  </diagram>
</mxfile>
